# AST/ASF file generated using VICON BodyLanguage
# -----------------------------------------------
:version 1.10
:name VICON
:units
  mass 1.0
  length 0.45
  angle deg
:documentation
   .ast/.asf automatically generated from VICON data using
   VICON BodyBuilder and BodyLanguage model FoxedUp or BRILLIANT.MOD
:root
   order TX TY TZ RX RY RZ
   axis XYZ
   position 0 0 0  
   orientation 0 0 0 
:bonedata
  begin
     id 1 
     name lhipjoint
     direction 0.499407 -0.589134 0.635228 
     length 2.99786 
     axis 0 0 0  XYZ
  end
  begin
     id 2 
     name lfemur
     direction 0.34202 -0.939693 0  
     length 6.89561  
     axis 0 0 20  XYZ
    dof rx ry rz
    limits (-160.0 20.0)
           (-70.0 70.0)
           (-60.0 70.0)
  end
  begin
     id 3 
     name ltibia
     direction 0.34202 -0.939693 0   
     length 8.00494   
     axis 0 0 20   XYZ
    dof rx
    limits (-10.0 170.0)
  end
  begin
     id 4 
     name lfoot
     direction 0.0680929 -0.194353 0.978565   
     length 2.06695   
     axis -90 7.62852e-016 20   XYZ
    dof rx rz
    limits (-45.0 90.0)
           (-70.0 20.0)
  end
  begin
     id 5 
     name ltoes
     direction 1.5346e-011 -4.21731e-011 1   
     length 1.04539   
     axis -90 7.62852e-016 20   XYZ
    dof rx
    limits (-90.0 20.0)
  end
  begin
     id 6 
     name rhipjoint
     direction -0.347526 -0.63762 0.687508   
     length 2.76989  
     axis 0 0 0  XYZ 
  end
  begin
     id 7 
     name rfemur
     direction -0.34202 -0.939693 0   
     length 6.97892   
     axis 0 0 -20   XYZ
    dof rx ry rz
    limits (-160.0 20.0)
           (-70.0 70.0)
           (-70.0 60.0)
  end
  begin
     id 8 
     name rtibia
     direction -0.34202 -0.939693 0   
     length 7.77056   
     axis 0 0 -20   XYZ
    dof rx
    limits (-10.0 170.0)
 end
 begin
     id 9 
     name rfoot
     direction -0.102685 -0.282124 0.953867   
     length 2.15099  
     axis -90 -7.62852e-016 -20   XYZ
    dof rx rz
    limits (-45.0 90.0)
           (-20.0 70.0)
  end
  begin
     id 10 
     name rtoes
     direction -0.000106751 -0.00118973 0.999999   
     length 1.0765   
     axis -90 -7.62852e-016 -20   XYZ
    dof rx
    limits (-90.0 20.0)
  end
  begin
     id 11 
     name lowerback
     direction -0.0190651 0.988667 0.148909   
     length 1.90627   
     axis 0 0 0   XYZ
    dof rx ry rz
    limits (-20.0 45.0)
           (-30.0 30.0)
           (-30.0 30.0)
  end
  begin
     id 12 
     name upperback
     direction -0.0180344 0.995767 -0.0901298   
     length 1.88167   
     axis 0 0 0   XYZ
    dof rx ry rz
    limits (-20.0 45.0)
           (-30.0 30.0)
           (-30.0 30.0)
  end
  begin
     id 13 
     name thorax
     direction -0.00329861 0.986394 -0.164366   
     length 1.91528   
     axis 0 0 0   XYZ
    dof rx ry rz
    limits (-20.0 45.0)
           (-30.0 30.0)
           (-30.0 30.0)
  end
  begin
     id 14 
     name lowerneck
     direction -0.0177752 0.978637 -0.204826   
     length 2.09812   
     axis 0 0 0   XYZ
    dof rx ry rz
    limits (-20.0 45.0)
           (-30.0 30.0)
           (-30.0 30.0)
  end
  begin
     id 15 
     name upperneck
     direction 0.108032 0.994134 0.00511541   
     length 2.11937   
     axis 0 0 0   XYZ
    dof rx ry rz
    limits (-20.0 45.0)
           (-30.0 30.0)
           (-30.0 30.0)
  end
  begin
     id 16
     name head
     direction 0.0423659 0.998938 0.0181058  
     length 2.14816  
     axis 0 0 0   XYZ
    dof rx ry rz
    limits (-20.0 45.0)
           (-30.0 30.0)
           (-30.0 30.0)
  end
  begin
     id 17 
     name lclavicle
     direction 0.869509 0.396908 0.293968  
     length 4.73713  
     axis 0 0 0   XYZ
    dof ry rz
    limits (-20.0 10.0)
           (0.0 20.0)
  end
  begin
     id 18 
     name lhumerus
     direction 1 -4.49e-011 3.63829e-027   
     length 4.72096   
     axis 180 -30 -90   XYZ
    dof rx ry rz
    limits (-60.0 90.0)
           (-90.0 90.0)
           (-90.0 90.0)
  end
  begin
     id 19
     name lradius
     direction 1 -4.48932e-011 7.19196e-027   
     length 3.18148   
     axis 180 -30 -90   XYZ
    dof rx
    limits (-10.0 170.0)
  end
  begin
     id 20
     name lwrist
     direction 1 -4.48995e-011 1.85462e-026   
     length 1.59074   
     axis -1.20349e-014 90 90   XYZ
    dof ry
    limits (-180.0 0.0)
 end
  begin
     id 21 
     name lhand
     direction 1 -4.48943e-011 3.70924e-026   
     length 0.848715   
     axis -2.36681e-014 90 90   XYZ
    dof rx rz
    limits (-90.0 90.0)
           (-45.0 45.0)
  end
  begin
     id 22 
     name lfingers
     direction 1 -4.48949e-011 7.41849e-026   
     length 0.684256   
     axis -4.73363e-014 90 90   XYZ
    dof rx
    limits (0.0 90.0)
  end
  begin
     id 23
     name lthumb
     direction 0.707107 -6.35018e-011 0.707107   
     length 0.982458   
     axis -90 45 2.85299e-015   XYZ
    dof rx rz
    limits (-45.0 45.0)
           (-45.0 45.0)
  end
  begin
     id 24 
     name rclavicle
     direction -0.923214 0.372787 0.0932992   
     length 4.28107  
     axis 0 0 0   XYZ 
    dof ry rz
    limits (-10.0 20.0)
           (-20.0 0.0)
  end
  begin
     id 25 
     name rhumerus
     direction -1 -4.48968e-011 6.59881e-018  
     length 4.76918   
     axis 180 30 90   XYZ
    dof rx ry rz
    limits (-90.0 60.0)
           (-90.0 90.0)
           (-90.0 90.0)
  end
  begin
     id 26 
     name rradius
     direction -1 0.000264575 -0.000152753   
     length 3.36438   
     axis 180 30 90   XYZ
    dof rx
    limits (-10.0 170.0)
  end
  begin
     id 27 
     name rwrist
     direction -1 -4.86632e-005 -0.00030086   
     length 1.68219   
     axis -1.20349e-014 -90 -90   XYZ
    dof ry
    limits (-180.0 0.0)
  end
  begin
     id 28
     name rhand
     direction -1 -4.48915e-011 3.70924e-026   
     length 0.767694   
     axis -2.36681e-014 -90 -90   XYZ
    dof rx rz
    limits (-90.0 90.0)
           (-45.0 45.0)
  end
  begin
     id 29
     name rfingers
     direction -1 -4.49015e-011 7.41849e-026   
     length 0.618935   
     axis -4.73363e-014 -90 -90   XYZ
    dof rx
    limits (0.0 90.0)
  end
  begin
     id 30
     name rthumb
     direction -0.707107 -6.34859e-011 0.707107   
     length 0.88867   
     axis -90 -45 -2.85299e-015   XYZ
    dof rx rz
    limits (-45.0 45.0)
           (-45.0 45.0)
  end
:hierarchy
  begin
    root lhipjoint rhipjoint lowerback
    lhipjoint lfemur
    lfemur ltibia
    ltibia lfoot
    lfoot ltoes
    rhipjoint rfemur
    rfemur rtibia
    rtibia rfoot
    rfoot rtoes
    lowerback upperback
    upperback thorax
    thorax lowerneck lclavicle rclavicle
    lowerneck upperneck
    upperneck head
    lclavicle lhumerus
    lhumerus lradius
    lradius lwrist
    lwrist lhand lthumb
    lhand lfingers
    rclavicle rhumerus
    rhumerus rradius
    rradius rwrist
    rwrist rhand rthumb
    rhand rfingers
  end

#!OML:ASF C:\Documents and Settings\Administrator\Desktop\New Folder (2)\VR_Jason.ASF
:FULLY-SPECIFIED
:DEGREES
390
root 0.763455 17.5819 -0.339086 16.4863 2.45931 -1.48384
lowerback -18.6254 0.524454 1.51979
upperback 4.56154 0.734183 -2.68445
thorax 15.8556 0.666448 -3.71709
lowerneck 25.84 -6.7667 -11.6142
upperneck -3.74796 -10.1192 26.5868
head -3.42365 -6.85385 11.7809
rclavicle -5.1684e-015 2.38542e-015
rhumerus -36.6692 -13.6804 -49.9016
rradius 122.628
rwrist 12.3988
rhand -32.809 42.5947
rfingers 7.12502
rthumb -6.02981 12.7005
lclavicle -5.1684e-015 2.38542e-015
lhumerus -0.965076 -23.8093 26.3096
lradius 112.455
lwrist 1.90896
lhand -30.2876 17.7773
lfingers 7.12502
lthumb -3.5952 47.7267
rfemur -21.6715 -5.93801 9.91741
rtibia 22.153
rfoot -9.75008 -25.249
rtoes -10.7173
lfemur -31.5237 0.814829 -17.2034
ltibia 34.4637
lfoot -20.5718 9.66759
ltoes -19.7951
391
root 0.776836 17.5798 -0.358155 16.3167 2.7694 -1.15077
lowerback -18.6889 0.576341 1.44266
upperback 4.73274 0.835583 -2.74262
thorax 16.1122 0.716094 -3.71321
lowerneck 25.1358 -6.98067 -11.8856
upperneck -3.48751 -10.4994 26.7934
head -3.13107 -7.0013 11.8441
rclavicle -7.95139e-015 0
rhumerus -32.4654 -16.7935 -50.453
rradius 118.663
rwrist 15.1519
rhand -35.1329 44.2717
rfingers 7.12502
rthumb -8.27301 14.4537
lclavicle -7.95139e-015 0
lhumerus 3.94159 -21.4303 27.7379
lradius 107.596
lwrist 3.34662
lhand -28.498 17.3123
lfingers 7.12502
lthumb -1.86687 47.2839
rfemur -21.4714 -6.08005 9.47763
rtibia 22.2248
rfoot -9.80831 -25.4746
rtoes -10.8689
lfemur -31.4347 0.808377 -17.6632
ltibia 34.4084
lfoot -20.4716 9.22304
ltoes -19.6468
392
root 0.785715 17.58 -0.377614 16.1437 3.07069 -0.922001
lowerback -18.6837 0.649643 1.45439
upperback 4.77311 0.948931 -2.84858
thorax 16.1713 0.777852 -3.80736
lowerneck 24.1783 -7.21754 -12.0842
upperneck -2.78381 -10.9597 26.914
head -2.65941 -7.15158 11.8195
rclavicle 3.18055e-015 3.18055e-015
rhumerus -27.9451 -19.9976 -51.4124
rradius 114.108
rwrist 17.8672
rhand -37.8478 46.4224
rfingers 7.12502
rthumb -10.8925 16.7249
lclavicle 3.18055e-015 3.18055e-015
lhumerus 8.47673 -19.0502 29.732
lradius 102.427
lwrist 4.73325
lhand -26.799 16.7473
lfingers 7.12502
lthumb -0.225997 46.727
rfemur -21.239 -5.87548 9.12647
rtibia 22.3078
rfoot -10.0305 -25.9075
rtoes -10.8221
lfemur -31.3113 0.688636 -17.9344
ltibia 34.3611
lfoot -20.4858 8.72066
ltoes -18.5818
393
root 0.795257 17.576 -0.405662 15.9726 3.41868 -0.693098
lowerback -18.662 0.652398 1.37474
upperback 4.7333 0.982321 -2.9162
thorax 16.1122 0.788299 -3.82786
lowerneck 24.5797 -7.21998 -12.2799
upperneck -2.78886 -11.0239 27.2228
head -2.68603 -7.2258 12.0063
rclavicle -7.55382e-015 4.45278e-014
rhumerus -23.2273 -23.2461 -52.7273
rradius 109.268
rwrist 19.3566
rhand -40.4857 49.8194
rfingers 7.12502
rthumb -13.4359 20.2728
lclavicle -7.55382e-015 4.45278e-014
lhumerus 13.075 -16.7059 32.2323
lradius 96.7378
lwrist 6.17941
lhand -24.6991 16.1572
lfingers 7.12502
lthumb 1.80222 46.1293
rfemur -21.0252 -5.71518 8.79086
rtibia 22.379
rfoot -10.1343 -26.3526
rtoes -10.6873
lfemur -31.1909 0.391396 -18.1477
ltibia 34.3225
lfoot -20.5527 8.14056
ltoes -16.4411
394
root 0.810378 17.5705 -0.434368 15.823 3.63947 -0.449585
lowerback -18.7053 0.671936 1.30043
upperback 4.67586 1.03524 -2.97484
thorax 16.0734 0.807556 -3.83508
lowerneck 24.0262 -7.40164 -12.6641
upperneck -2.03363 -11.4988 27.2628
head -2.24987 -7.39739 12.0129
rclavicle 5.96354e-015 7.95139e-016
rhumerus -18.3859 -25.9794 -54.588
rradius 104.121
rwrist 21.8219
rhand -42.0935 51.2999
rfingers 7.12502
rthumb -14.9853 21.8621
lclavicle 5.96354e-015 7.95139e-016
lhumerus 17.6823 -14.3343 35.3717
lradius 90.5779
lwrist 7.49767
lhand -21.9755 14.9979
lfingers 7.12502
lthumb 4.43246 44.9315
rfemur -20.9425 -5.83169 8.457
rtibia 22.4615
rfoot -9.72102 -26.5486
rtoes -11.0692
lfemur -31.066 0.116592 -18.3945
ltibia 34.289
lfoot -20.7132 7.38535
ltoes -12.8133
395
root 0.827603 17.5663 -0.459261 15.6596 3.67189 -0.246611
lowerback -18.746 0.742872 1.28202
upperback 4.64268 1.15098 -3.07824
thorax 16.071 0.864973 -3.90676
lowerneck 24.3381 -7.4154 -12.7161
upperneck -1.90509 -11.5684 27.327
head -2.24067 -7.4494 12.0682
rclavicle -1.0138e-014 2.38542e-014
rhumerus -13.055 -29.0322 -56.9741
rradius 98.7298
rwrist 23.3424
rhand -43.3795 53.2474
rfingers 7.12502
rthumb -16.2238 23.9062
lclavicle -1.0138e-014 2.38542e-014
lhumerus 21.627 -12.0697 39.1182
lradius 84.653
lwrist 8.80997
lhand -19.3046 14.8705
lfingers 7.12502
lthumb 7.01117 44.7344
rfemur -20.8893 -6.12308 8.17537
rtibia 22.5307
rfoot -9.18358 -26.3653
rtoes -11.4127
lfemur -30.9229 0.0498236 -18.6849
ltibia 34.2655
lfoot -20.8006 7.01587
ltoes -10.7023
396
root 0.84113 17.5621 -0.48332 15.4925 3.65395 -0.0523833
lowerback -18.8431 0.771106 1.15712
upperback 4.63831 1.23249 -3.15351
thorax 16.1322 0.895849 -3.89702
lowerneck 24.1728 -7.4674 -12.7453
upperneck -1.44214 -11.7282 27.1831
head -2.05083 -7.49136 11.9865
rclavicle -3.37934e-015 3.18055e-015
rhumerus -7.08408 -32.4036 -60.0758
rradius 92.9169
rwrist 24.723
rhand -44.2504 54.9607
rfingers 7.12502
rthumb -17.0622 25.69
lclavicle -3.37934e-015 3.18055e-015
lhumerus 25.0621 -10.0791 43.2143
lradius 78.9716
lwrist 10.4104
lhand -18.9919 15.7114
lfingers 7.12502
lthumb 7.31295 45.565
rfemur -20.7498 -6.00051 7.85221
rtibia 22.5614
rfoot -9.44581 -26.3493
rtoes -10.4831
lfemur -30.7835 0.11909 -18.9898
ltibia 34.2571
lfoot -20.7682 6.97179
ltoes -10.8194
397
root 0.85499 17.5615 -0.509923 15.3624 3.68555 0.00343382
lowerback -19.0402 0.754222 1.08205
upperback 4.66357 1.22884 -3.14271
thorax 16.2826 0.88887 -3.84562
lowerneck 24.1146 -7.48132 -12.799
upperneck -1.17127 -11.8126 27.0818
head -1.94636 -7.51263 11.9422
rclavicle 1.64991e-014 -4.13472e-014
rhumerus -0.274404 -35.8845 -64.2713
rradius 86.6283
rwrist 26.1639
rhand -45.0795 56.3239
rfingers 7.12502
rthumb -17.8601 27.124
lclavicle 1.64991e-014 -4.13472e-014
lhumerus 28.5581 -7.98039 47.6519
lradius 72.9738
lwrist 11.7147
lhand -20.7469 15.3027
lfingers 7.12502
lthumb 5.61874 45.2082
rfemur -20.6316 -5.64612 7.67202
rtibia 22.5526
rfoot -9.64575 -26.6038
rtoes -10.0487
lfemur -30.7574 0.214374 -19.1425
ltibia 34.2761
lfoot -20.5547 7.08372
ltoes -12.3741
398
root 0.871841 17.5611 -0.5368 15.2281 3.62906 -0.00833993
lowerback -19.1678 0.736495 1.03418
upperback 4.66235 1.20868 -3.08406
thorax 16.3551 0.871765 -3.75795
lowerneck 24.1806 -7.48248 -12.8319
upperneck -0.961494 -11.8714 26.8949
head -1.88945 -7.52591 11.8746
rclavicle 1.23246e-014 9.54166e-015
rhumerus 7.17726 -39.3059 -69.6551
rradius 80.3295
rwrist 27.215
rhand -45.7256 57.2083
rfingers 7.12502
rthumb -18.4817 28.0663
lclavicle 1.23246e-014 9.54166e-015
lhumerus 31.6094 -5.42778 52.8477
lradius 67.3009
lwrist 12.2934
lhand -21.3757 14.8871
lfingers 7.12502
lthumb 5.01164 44.8079
rfemur -20.5973 -5.68363 7.61679
rtibia 22.5329
rfoot -8.73722 -26.5842
rtoes -11.8738
lfemur -30.7524 0.507405 -19.2746
ltibia 34.3234
lfoot -20.4071 7.01529
ltoes -13.5809
399
root 0.888161 17.5567 -0.560781 14.9913 3.5241 -0.023292
lowerback -19.3067 0.706588 0.960403
upperback 4.73268 1.18314 -3.04036
thorax 16.5223 0.853231 -3.67677
lowerneck 23.6601 -7.56774 -12.821
upperneck -0.305671 -12.0849 26.5247
head -1.59078 -7.55406 11.6661
rclavicle 3.57812e-015 3.73715e-014
rhumerus 15.6834 -42.6997 -76.7851
rradius 74.0676
rwrist 28.0088
rhand -46.0523 57.5252
rfingers 7.12502
rthumb -18.796 28.4133
lclavicle 3.57812e-015 3.73715e-014
lhumerus 34.3983 -2.35266 58.6802
lradius 62.1531
lwrist 12.2558
lhand -19.8264 15.8052
lfingers 7.12502
lthumb 6.50737 45.6852
rfemur -20.4556 -5.77545 7.57757
rtibia 22.5301
rfoot -7.93826 -26.4799
rtoes -13.7618
lfemur -30.5763 0.807938 -19.3807
ltibia 34.3831
lfoot -20.4068 6.90666
ltoes -13.6978
400
root 0.906124 17.5535 -0.58407 14.7828 3.38527 -0.0273361
lowerback -19.4818 0.683207 0.940214
upperback 4.80157 1.16235 -3.05602
thorax 16.7148 0.847211 -3.69466
lowerneck 22.3705 -7.84292 -12.6619
upperneck 0.946918 -12.5818 25.8239
head -0.967601 -7.63932 11.2305
rclavicle 1.05356e-014 2.38542e-014
rhumerus 25.34 -45.7601 -85.7512
rradius 67.9182
rwrist 28.2252
rhand -46.2876 57.2308
rfingers 7.12502
rthumb -19.0223 28.141
lclavicle 1.05356e-014 2.38542e-014
lhumerus 37.4878 1.04491 64.9811
lradius 57.0779
lwrist 11.9064
lhand -17.0234 17.1772
lfingers 7.12502
lthumb 9.21278 46.956
rfemur -20.3488 -5.74767 7.50039
rtibia 22.5645
rfoot -7.86385 -26.3802
rtoes -14.3946
lfemur -30.4269 1.03363 -19.5018
ltibia 34.426
lfoot -20.3046 7.28987
ltoes -15.5399
401
root 0.921693 17.5505 -0.607972 14.6043 3.10059 0.0293219
lowerback -19.4419 0.656669 0.812097
upperback 4.77246 1.16194 -3.07666
thorax 16.6514 0.833961 -3.64384
lowerneck 23.262 -7.65471 -12.6198
upperneck 0.506034 -12.2842 25.9279
head -1.2939 -7.567 11.3493
rclavicle 7.15625e-015 -4.77083e-015
rhumerus 34.9059 -47.7956 -95.1537
rradius 62.1012
rwrist 27.3001
rhand -46.5493 56.6898
rfingers 7.12502
rthumb -19.274 27.6249
lclavicle 7.15625e-015 -4.77083e-015
lhumerus 40.6085 4.47894 71.6641
lradius 52.2754
lwrist 12.0076
lhand -15.1936 18.8686
lfingers 7.12502
lthumb 10.978 48.5615
rfemur -20.336 -5.38612 7.32961
rtibia 22.6236
rfoot -7.85399 -26.4261
rtoes -14.5839
lfemur -30.3079 1.27063 -19.6621
ltibia 34.438
lfoot -20.1702 7.58781
ltoes -16.8892
402
root 0.935164 17.5449 -0.626532 14.4172 2.62535 0.062624
lowerback -19.4363 0.698435 0.70597
upperback 4.73066 1.25264 -3.12732
thorax 16.6023 0.866105 -3.61033
lowerneck 23.6824 -7.55046 -12.768
upperneck 0.607249 -12.2261 26.0264
head -1.32857 -7.56647 11.4431
rclavicle 2.78299e-015 3.89618e-014
rhumerus 43.3865 -48.5872 -103.76
rradius 56.5872
rwrist 24.8881
rhand -47.1808 55.3323
rfingers 7.12502
rthumb -19.8811 26.3292
lclavicle 2.78299e-015 3.89618e-014
lhumerus 43.5786 7.84512 78.6174
lradius 48.0078
lwrist 12.8633
lhand -14.8607 20.7566
lfingers 7.12502
lthumb 11.2991 50.4322
rfemur -20.3855 -4.77943 7.15018
rtibia 22.7042
rfoot -7.76497 -26.4824
rtoes -14.4341
lfemur -30.1124 1.47881 -19.7597
ltibia 34.4157
lfoot -20.1695 7.62439
ltoes -16.4778
403
root 0.953471 17.5446 -0.639667 14.3611 2.10377 0.0417783
lowerback -19.7824 0.787019 0.736815
upperback 4.74467 1.37855 -3.19151
thorax 16.8484 0.934284 -3.66521
lowerneck 23.4821 -7.59403 -12.6759
upperneck 1.26288 -12.3687 25.7079
head -1.09986 -7.5854 11.2732
rclavicle -1.78906e-015 1.11319e-014
rhumerus 49.8773 -48.0276 -110.183
rradius 51.516
rwrist 19.4605
rhand -47.238 52.1869
rfingers 7.12502
rthumb -19.936 23.1896
lclavicle -1.78906e-015 1.11319e-014
lhumerus 46.5845 10.9139 85.0778
lradius 44.0952
lwrist 14.9989
lhand -14.8844 22.5259
lfingers 7.12502
lthumb 11.2762 52.2028
rfemur -20.6349 -4.60461 7.07097
rtibia 22.8357
rfoot -7.36609 -26.1823
rtoes -14.4424
lfemur -29.9979 1.6792 -19.8355
ltibia 34.3597
lfoot -20.1575 7.83996
ltoes -16.3434
404
root 0.973486 17.5475 -0.649372 14.3649 1.62591 0.0704507
lowerback -20.1951 0.837564 0.667782
upperback 4.75486 1.46875 -3.18344
thorax 17.1231 0.970544 -3.58981
lowerneck 23.1233 -7.68994 -12.5469
upperneck 1.98749 -12.5735 25.1391
head -0.827791 -7.61043 10.9921
rclavicle -9.74045e-015 2.14687e-014
rhumerus 53.6859 -46.461 -113.182
rradius 46.8814
rwrist 10.1169
rhand -45.0912 47.6393
rfingers 7.12502
rthumb -17.8714 18.4404
lclavicle -9.74045e-015 2.14687e-014
lhumerus 49.5125 13.5523 90.8388
lradius 40.3575
lwrist 17.9588
lhand -15.0428 24.019
lfingers 7.12502
lthumb 11.1234 53.7042
rfemur -20.9825 -4.88916 7.00119
rtibia 23.0309
rfoot -6.97665 -25.6434
rtoes -14.4688
lfemur -29.898 1.85092 -19.9788
ltibia 34.2697
lfoot -20.1745 8.10984
ltoes -16.2774
